<svg id="svg" version="1.1" xmlns="http://www.w3.org/2000/svg" xmlns:xlink="http://www.w3.org/1999/xlink" width="400" height="363.14606741573033" viewBox="0, 0, 400,363.14606741573033"><g id="svgg"><path id="path0" d="M145.141 103.604 C 111.445 106.024,88.714 140.533,99.233 173.297 C 102.338 182.968,108.613 191.905,116.894 198.450 L 120.618 201.393 120.618 232.940 C 120.618 250.291,120.495 264.476,120.345 264.464 C 120.195 264.451,119.459 263.703,118.709 262.802 C 109.263 251.456,91.067 252.363,82.761 264.594 C 80.836 267.429,79.605 270.524,79.321 273.247 C 79.055 275.793,78.821 275.968,76.687 275.215 C 70.054 272.875,61.033 277.192,58.533 283.903 L 57.848 285.740 55.355 285.834 C 38.211 286.477,29.694 306.798,41.550 318.770 C 47.369 324.645,48.219 324.796,75.600 324.796 C 99.874 324.796,98.819 324.895,98.819 322.610 C 98.819 320.384,99.366 320.437,75.941 320.430 C 52.136 320.423,51.549 320.373,47.645 318.048 C 34.105 309.982,41.153 289.461,57.151 290.374 C 60.869 290.586,62.125 289.942,62.125 287.826 C 62.125 280.376,72.729 276.607,79.387 281.691 C 82.785 284.285,83.672 283.320,83.712 276.986 C 83.849 255.493,115.882 252.777,119.188 273.978 C 119.842 278.174,121.249 278.532,124.564 275.348 C 134.196 266.097,149.391 270.539,152.070 283.388 C 152.878 287.264,152.409 288.801,150.409 288.831 C 146.691 288.886,140.282 295.632,142.161 297.511 C 142.938 298.288,143.490 297.888,144.492 295.822 C 148.612 287.321,161.287 289.956,165.304 300.148 C 168.560 308.409,163.388 317.840,154.446 319.945 C 153.040 320.276,149.528 320.426,143.133 320.430 C 132.889 320.437,132.243 320.564,132.243 322.580 C 132.243 324.734,132.561 324.796,143.664 324.796 C 155.130 324.796,156.508 324.588,160.822 322.215 C 168.335 318.082,172.527 308.373,170.192 300.512 C 169.884 299.472,169.730 298.462,169.851 298.266 C 169.992 298.037,194.000 297.911,237.622 297.911 L 305.175 297.911 305.267 246.776 L 305.359 195.640 333.697 195.459 L 362.035 195.277 364.689 194.307 C 382.679 187.734,387.347 165.322,373.412 152.420 C 370.640 149.854,368.011 148.197,365.569 147.477 C 363.834 146.965,363.801 146.891,363.544 142.961 C 362.281 123.641,336.982 112.821,322.184 125.272 C 320.911 126.343,320.985 126.410,319.547 122.896 C 310.395 100.539,279.228 99.271,268.385 120.814 C 266.978 123.609,265.726 127.961,265.378 131.265 C 265.041 134.471,264.124 133.447,264.124 129.864 C 264.124 127.429,264.044 127.148,263.166 126.457 C 260.814 124.607,257.947 126.216,257.947 129.387 L 257.947 131.153 256.092 131.153 C 253.704 131.153,250.361 132.026,247.539 133.387 C 245.749 134.250,244.919 134.442,243.361 134.353 L 241.417 134.242 241.203 130.972 C 240.955 127.174,240.786 126.674,239.563 126.116 C 236.306 124.632,234.782 126.292,234.606 131.517 L 234.514 134.242 226.340 134.242 L 218.165 134.242 218.073 131.517 C 217.922 127.031,217.185 125.704,214.847 125.704 C 212.520 125.704,211.725 126.911,211.478 130.820 L 211.262 134.242 205.018 134.341 C 200.311 134.416,198.674 134.326,198.373 133.978 C 198.153 133.723,197.203 132.161,196.262 130.506 C 185.845 112.191,166.597 102.062,145.141 103.604 M160.945 111.172 C 196.032 119.696,208.433 162.998,183.299 189.229 C 161.192 212.301,122.004 206.188,107.942 177.475 C 90.412 141.682,122.306 101.784,160.945 111.172 M300.546 110.836 C 309.080 113.698,315.012 120.451,316.784 129.320 C 317.802 134.419,319.011 134.955,322.021 131.642 C 333.570 118.933,353.985 123.732,358.557 140.231 C 359.166 142.429,359.640 148.164,359.219 148.247 C 359.169 148.256,357.715 148.481,355.989 148.746 C 351.980 149.362,349.857 150.413,347.136 153.132 C 344.751 155.515,342.941 159.326,343.790 160.175 C 344.339 160.724,345.504 160.691,345.504 160.127 C 345.506 157.453,349.944 152.497,353.215 151.517 C 371.846 145.935,385.220 170.811,371.211 184.989 C 365.295 190.977,364.541 191.093,331.608 191.096 L 305.177 191.099 305.177 168.747 C 305.177 147.377,305.145 146.304,304.455 144.341 C 302.307 138.230,297.637 134.787,291.008 134.428 L 287.557 134.242 287.375 130.753 C 287.140 126.244,285.875 124.883,283.018 126.066 C 281.633 126.640,281.451 127.135,281.217 130.972 L 281.017 134.242 275.568 134.242 L 270.118 134.242 270.002 132.243 C 269.183 118.190,286.431 106.102,300.546 110.836 M148.068 118.155 C 147.577 118.856,147.502 121.023,147.502 134.468 L 147.502 149.974 146.252 150.711 C 140.468 154.124,142.869 163.433,149.545 163.480 C 150.465 163.486,152.866 165.176,162.261 172.427 C 176.165 183.160,176.889 183.499,178.528 180.045 C 179.713 177.548,179.532 177.376,160.421 162.803 C 156.152 159.548,156.296 159.744,156.706 157.739 C 157.197 155.343,155.891 152.375,153.711 150.932 L 152.225 149.949 152.225 134.456 C 152.225 117.145,152.253 117.348,149.864 117.348 C 149.004 117.348,148.463 117.591,148.068 118.155 M211.444 143.664 C 211.444 149.071,212.098 150.374,214.821 150.397 C 217.454 150.419,217.984 149.390,217.984 144.249 L 217.984 139.873 226.310 139.873 L 234.636 139.873 234.757 144.447 C 234.894 149.662,235.297 150.420,237.915 150.397 C 240.597 150.374,241.235 149.124,241.235 143.893 L 241.235 139.873 249.591 139.873 L 257.947 139.873 257.947 144.249 C 257.947 149.399,258.470 150.409,261.137 150.409 C 263.715 150.409,264.283 149.337,264.427 144.198 L 264.548 139.859 272.783 139.957 L 281.017 140.054 281.199 144.414 C 281.398 149.195,281.512 149.543,283.090 150.207 C 286.220 151.523,287.521 149.810,287.679 144.167 L 287.801 139.799 290.614 139.927 C 294.150 140.087,296.414 141.332,298.083 144.032 L 299.183 145.811 299.047 218.501 C 298.972 258.480,298.840 291.312,298.753 291.462 C 298.666 291.612,268.583 291.735,231.903 291.735 L 165.211 291.735 163.760 290.424 C 162.963 289.704,161.103 288.541,159.629 287.841 C 157.126 286.652,156.948 286.491,156.948 285.413 C 156.948 284.778,156.698 283.297,156.392 282.122 C 156.010 280.655,155.953 279.869,156.210 279.612 C 156.447 279.375,156.585 275.931,156.585 270.227 L 156.585 261.217 147.502 261.217 L 138.420 261.217 138.420 263.526 L 138.420 265.836 135.085 266.088 C 133.251 266.226,130.804 266.658,129.647 267.048 C 128.490 267.438,127.456 267.757,127.350 267.757 C 127.244 267.757,127.157 253.615,127.157 236.331 C 127.157 219.046,127.245 204.905,127.353 204.905 C 127.461 204.905,128.156 205.214,128.897 205.592 C 129.639 205.970,131.717 206.718,133.515 207.256 C 138.835 208.846,138.420 208.476,138.420 211.618 L 138.420 214.351 147.486 214.351 L 156.552 214.351 156.659 211.923 L 156.767 209.496 160.862 208.641 C 163.115 208.171,166.262 207.325,167.856 206.761 L 170.754 205.735 170.754 210.043 L 170.754 214.351 180.018 214.351 L 189.282 214.351 189.282 205.268 L 189.282 196.185 187.648 196.185 C 185.672 196.185,185.633 195.966,187.318 194.349 C 201.355 180.882,206.536 160.018,200.687 140.509 C 200.511 139.923,200.926 139.873,205.970 139.873 L 211.444 139.873 211.444 143.664 M203.088 205.268 L 203.088 214.351 212.352 214.351 L 221.617 214.351 221.617 205.268 L 221.617 196.185 212.352 196.185 L 203.088 196.185 203.088 205.268 M235.786 205.268 L 235.786 214.351 244.868 214.351 L 253.951 214.351 253.951 205.268 L 253.951 196.185 244.868 196.185 L 235.786 196.185 235.786 205.268 M268.120 205.268 L 268.120 214.351 277.384 214.351 L 286.649 214.351 286.649 205.268 L 286.649 196.185 277.384 196.185 L 268.120 196.185 268.120 205.268 M187.103 205.268 L 187.103 212.171 180.018 212.171 L 172.934 212.171 172.934 208.442 L 172.934 204.712 175.766 203.152 C 177.323 202.293,179.568 200.865,180.754 199.978 C 182.723 198.505,183.092 198.365,185.006 198.365 L 187.103 198.365 187.103 205.268 M219.437 205.268 L 219.437 212.171 212.352 212.171 L 205.268 212.171 205.268 205.268 L 205.268 198.365 212.352 198.365 L 219.437 198.365 219.437 205.268 M251.771 205.268 L 251.771 212.171 244.868 212.171 L 237.965 212.171 237.965 205.268 L 237.965 198.365 244.868 198.365 L 251.771 198.365 251.771 205.268 M284.469 205.268 L 284.469 212.171 277.384 212.171 L 270.300 212.171 270.300 205.268 L 270.300 198.365 277.384 198.365 L 284.469 198.365 284.469 205.268 M149.773 209.792 L 154.405 209.809 154.405 210.990 L 154.405 212.171 147.502 212.171 L 140.599 212.171 140.599 210.699 L 140.599 209.228 142.870 209.502 C 144.119 209.652,147.225 209.783,149.773 209.792 M138.420 237.784 L 138.420 247.048 147.502 247.048 L 156.585 247.048 156.585 237.784 L 156.585 228.520 147.502 228.520 L 138.420 228.520 138.420 237.784 M170.754 237.790 L 170.754 247.061 179.927 246.964 L 189.101 246.866 189.198 237.693 L 189.295 228.520 180.024 228.520 L 170.754 228.520 170.754 237.790 M203.252 228.981 C 203.154 229.235,203.118 233.363,203.172 238.154 L 203.270 246.866 212.443 246.964 L 221.617 247.061 221.617 237.790 L 221.617 228.520 212.523 228.520 C 205.507 228.520,203.388 228.625,203.252 228.981 M235.786 237.784 L 235.786 247.048 244.868 247.048 L 253.951 247.048 253.951 237.784 L 253.951 228.520 244.868 228.520 L 235.786 228.520 235.786 237.784 M268.286 228.974 C 268.187 229.232,268.150 233.363,268.204 238.154 L 268.302 246.866 277.384 246.866 L 286.467 246.866 286.467 237.784 L 286.467 228.701 277.466 228.604 C 270.391 228.528,268.427 228.607,268.286 228.974 M154.405 237.784 L 154.405 244.868 147.502 244.868 L 140.599 244.868 140.599 237.784 L 140.599 230.699 147.502 230.699 L 154.405 230.699 154.405 237.784 M186.921 237.784 L 186.921 244.687 180.018 244.687 L 173.115 244.687 173.016 238.159 C 172.961 234.569,172.998 231.419,173.098 231.158 C 173.241 230.786,174.753 230.705,180.101 230.782 L 186.921 230.881 186.921 237.784 M219.437 237.792 L 219.437 244.884 212.443 244.785 L 205.450 244.687 205.350 238.159 C 205.295 234.569,205.331 231.422,205.429 231.166 C 205.566 230.809,207.230 230.699,212.523 230.699 L 219.437 230.699 219.437 237.792 M251.771 237.784 L 251.771 244.868 244.868 244.868 L 237.965 244.868 237.965 237.784 L 237.965 230.699 244.868 230.699 L 251.771 230.699 251.771 237.784 M284.287 237.784 L 284.287 244.687 277.384 244.687 L 270.481 244.687 270.382 238.159 C 270.327 234.569,270.364 231.419,270.464 231.158 C 270.607 230.786,272.119 230.705,277.467 230.782 L 284.287 230.881 284.287 237.784 M170.754 270.300 L 170.754 279.382 180.018 279.382 L 189.282 279.382 189.282 270.300 L 189.282 261.217 180.018 261.217 L 170.754 261.217 170.754 270.300 M203.088 270.300 L 203.088 279.382 212.352 279.382 L 221.617 279.382 221.617 270.300 L 221.617 261.217 212.352 261.217 L 203.088 261.217 203.088 270.300 M154.405 269.755 C 154.405 276.471,154.369 276.692,153.529 275.114 C 151.790 271.845,145.902 267.513,142.145 266.738 C 140.855 266.471,140.775 266.374,140.669 264.927 L 140.558 263.397 147.481 263.397 L 154.405 263.397 154.405 269.755 M187.103 270.300 L 187.103 277.203 180.018 277.203 L 172.934 277.203 172.934 270.300 L 172.934 263.397 180.018 263.397 L 187.103 263.397 187.103 270.300 M219.437 270.300 L 219.437 277.203 212.352 277.203 L 205.268 277.203 205.268 270.300 L 205.268 263.397 212.352 263.397 L 219.437 263.397 219.437 270.300 M103.262 320.863 C 102.154 321.424,101.862 322.761,102.602 323.890 C 103.837 325.774,108.265 324.881,108.265 322.747 C 108.265 320.941,105.308 319.827,103.262 320.863 M112.708 320.883 C 111.602 321.416,111.307 322.759,112.048 323.890 C 113.430 325.998,121.344 324.985,121.344 322.700 C 121.344 320.768,115.498 319.538,112.708 320.883 " stroke="none" fill="#483030" fill-rule="evenodd"></path><path id="path1" d="M0.000 181.653 L 0.000 363.306 200.000 363.306 L 400.000 363.306 400.000 181.653 L 400.000 0.000 200.000 0.000 L 0.000 0.000 0.000 181.653 M158.946 103.707 C 160.145 103.986,162.352 104.498,163.851 104.845 C 165.350 105.191,166.821 105.598,167.121 105.748 C 167.421 105.898,168.475 106.307,169.463 106.656 C 173.535 108.093,180.768 112.383,184.196 115.393 C 184.696 115.832,185.735 116.728,186.505 117.385 C 189.357 119.818,194.926 127.062,197.298 131.426 L 198.533 133.697 204.807 133.697 L 211.081 133.697 211.081 130.954 C 211.081 126.923,212.105 125.341,214.714 125.341 C 217.323 125.341,218.347 126.923,218.347 130.954 L 218.347 133.697 226.340 133.697 L 234.332 133.697 234.332 130.647 C 234.332 126.822,235.343 125.341,237.950 125.341 C 240.541 125.341,241.599 126.892,241.599 130.690 L 241.599 133.697 243.786 133.697 C 245.434 133.697,246.559 133.431,248.344 132.622 C 250.827 131.496,253.854 130.790,256.198 130.790 C 257.499 130.790,257.584 130.723,257.584 129.689 C 257.584 123.884,264.714 123.796,264.879 129.598 L 264.908 130.609 265.195 129.700 C 265.353 129.201,265.670 127.786,265.900 126.556 C 267.259 119.277,272.618 112.472,280.507 108.006 C 285.731 105.048,295.995 104.098,301.726 106.042 C 310.841 109.133,316.607 114.699,320.492 124.160 C 321.044 125.504,321.514 125.631,322.382 124.671 C 323.100 123.879,328.211 121.294,330.790 120.420 C 333.771 119.409,341.658 119.487,345.141 120.563 C 355.960 123.902,363.950 134.039,364.020 144.514 C 364.032 146.265,364.119 146.463,365.032 146.810 C 379.401 152.268,385.958 168.855,379.101 182.400 C 376.145 188.238,370.808 192.623,363.739 195.022 L 360.945 195.970 333.243 196.102 L 305.540 196.234 305.540 247.254 L 305.540 298.274 237.784 298.274 C 194.491 298.274,170.027 298.401,170.027 298.625 C 170.027 298.818,170.283 299.730,170.596 300.652 C 172.787 307.103,169.040 317.230,162.928 321.377 C 157.934 324.767,155.925 325.159,143.569 325.159 C 132.266 325.159,131.880 325.082,131.880 322.833 C 131.880 320.333,132.128 320.276,143.997 320.073 L 154.587 319.891 157.394 318.519 C 166.776 313.934,168.842 302.379,161.599 295.005 C 155.972 289.275,147.323 289.836,144.626 296.105 C 143.703 298.249,143.004 298.661,141.997 297.653 C 139.803 295.460,145.486 289.445,150.823 288.312 C 152.057 288.050,152.324 286.987,151.897 284.036 C 150.016 271.025,133.603 266.203,124.432 275.968 C 121.528 279.061,119.921 278.388,118.784 273.604 C 113.908 253.080,84.191 255.964,84.081 276.971 C 84.047 283.376,82.428 285.102,79.214 282.159 C 73.259 276.704,63.474 280.014,62.294 287.881 C 61.874 290.680,61.782 290.726,56.467 290.790 C 39.823 290.991,34.590 311.316,49.327 318.519 L 52.134 319.891 74.922 320.073 C 97.111 320.250,97.728 320.273,98.408 320.981 C 99.615 322.237,99.697 323.225,98.677 324.245 L 97.762 325.159 76.038 325.157 C 51.988 325.155,51.413 325.111,46.920 322.941 C 28.014 313.814,34.901 285.586,56.040 285.561 C 57.014 285.559,57.766 285.391,57.766 285.173 C 57.766 284.099,59.811 280.701,61.475 279.011 C 65.209 275.218,71.009 273.541,76.196 274.756 L 78.460 275.285 78.660 273.973 C 81.487 255.426,104.338 247.832,117.554 261.048 L 120.254 263.748 120.238 232.601 L 120.222 201.453 117.348 199.308 C 112.689 195.831,107.527 190.175,104.173 184.873 C 102.621 182.421,99.183 175.273,99.183 174.500 C 99.183 174.289,98.789 172.910,98.307 171.435 C 97.826 169.961,97.259 167.446,97.047 165.848 C 95.696 155.666,95.697 157.507,97.044 147.343 C 97.445 144.313,99.099 138.551,100.295 136.018 C 100.682 135.197,100.999 134.404,100.999 134.256 C 100.999 131.331,112.265 117.282,117.348 113.868 C 118.047 113.399,119.336 112.507,120.213 111.887 C 122.448 110.304,128.964 106.949,130.849 106.409 C 131.716 106.161,132.593 105.834,132.797 105.682 C 133.400 105.234,141.275 103.507,144.233 103.174 C 147.842 102.767,156.215 103.070,158.946 103.707 M290.645 110.297 C 281.721 111.861,274.997 116.866,272.225 124.009 C 271.902 124.841,271.515 125.686,271.366 125.886 C 270.948 126.443,270.300 130.351,270.300 132.310 L 270.300 134.060 275.568 134.060 L 280.836 134.060 280.836 130.762 C 280.836 126.815,281.774 125.341,284.287 125.341 C 286.800 125.341,287.738 126.815,287.738 130.762 L 287.738 134.060 289.869 134.060 C 296.325 134.060,301.189 136.860,303.822 142.091 C 305.423 145.272,305.536 147.079,305.538 169.573 L 305.540 190.736 331.789 190.733 C 360.792 190.730,361.332 190.695,365.684 188.569 C 380.947 181.112,380.223 159.333,364.474 152.162 C 357.536 149.004,348.216 152.326,346.389 158.609 C 345.526 161.577,343.039 161.995,343.426 159.106 C 344.107 154.032,350.267 148.888,356.386 148.283 L 358.765 148.047 358.878 146.052 C 359.946 127.166,336.460 117.661,322.707 131.414 C 319.047 135.074,317.197 134.744,316.679 130.340 C 315.649 121.571,307.736 112.581,299.546 110.873 C 297.394 110.425,291.934 110.071,290.645 110.297 M197.674 180.766 C 197.255 181.476,196.912 182.157,196.912 182.278 C 196.912 183.292,190.899 191.207,187.466 194.713 L 186.558 195.640 187.926 195.753 L 189.294 195.867 189.198 205.381 L 189.101 214.896 180.245 214.993 C 169.568 215.110,170.391 215.515,170.391 210.149 L 170.391 206.035 168.847 206.716 C 167.014 207.523,159.053 209.628,157.833 209.628 C 157.026 209.628,156.974 209.770,156.873 212.262 L 156.767 214.896 147.502 214.896 L 138.238 214.896 138.133 211.937 C 138.047 209.516,137.915 208.945,137.406 208.794 C 131.466 207.036,130.211 206.634,129.893 206.389 C 129.687 206.230,128.987 205.921,128.338 205.703 L 127.157 205.306 127.157 236.350 C 127.157 256.579,127.282 267.393,127.517 267.393 C 127.714 267.393,128.736 267.059,129.787 266.651 C 130.891 266.223,133.042 265.816,134.877 265.689 L 138.056 265.469 138.056 263.161 L 138.056 260.854 147.502 260.854 L 156.948 260.854 156.948 270.269 C 156.948 276.234,156.815 279.730,156.584 279.806 C 156.341 279.887,156.341 280.349,156.584 281.197 C 156.784 281.895,156.950 283.039,156.953 283.740 C 156.962 285.991,157.256 286.423,159.422 287.369 C 160.557 287.865,162.343 288.968,163.390 289.821 L 165.294 291.371 231.784 291.371 L 298.274 291.371 298.274 235.422 L 298.274 179.473 248.356 179.473 L 198.437 179.473 197.674 180.766 M221.895 205.350 L 221.992 214.697 221.169 214.899 C 220.716 215.010,216.503 215.054,211.807 214.998 L 203.270 214.896 203.173 205.353 L 203.076 195.810 212.437 195.907 L 221.798 196.004 221.895 205.350 M254.229 205.359 L 254.133 214.896 244.868 214.896 L 235.604 214.896 235.507 205.359 L 235.410 195.822 244.868 195.822 L 254.326 195.822 254.229 205.359 M286.927 205.041 C 286.996 211.404,286.902 214.227,286.610 214.578 C 286.179 215.098,269.617 215.350,268.331 214.857 C 267.729 214.625,267.416 196.647,268.005 196.058 C 268.141 195.922,272.433 195.854,277.542 195.907 L 286.830 196.004 286.927 205.041 M156.863 237.875 L 156.960 247.411 147.508 247.411 L 138.056 247.411 138.056 238.026 C 138.056 232.864,138.168 228.529,138.305 228.392 C 138.441 228.256,142.651 228.188,147.660 228.241 L 156.767 228.338 156.863 237.875 M189.282 237.790 L 189.282 247.424 179.927 247.327 L 170.572 247.230 170.475 238.154 C 170.421 233.162,170.457 228.870,170.554 228.617 C 170.691 228.262,172.851 228.156,180.007 228.156 L 189.282 228.156 189.282 237.790 M221.798 237.784 L 221.798 247.230 212.443 247.327 L 203.088 247.424 203.088 237.784 L 203.088 228.144 212.443 228.241 L 221.798 228.338 221.798 237.784 M254.229 237.875 L 254.326 247.411 244.874 247.411 L 235.422 247.411 235.422 238.026 C 235.422 232.864,235.534 228.529,235.671 228.392 C 235.807 228.256,240.017 228.188,245.026 228.241 L 254.133 228.338 254.229 237.875 M286.830 237.784 L 286.830 247.230 277.384 247.230 L 267.938 247.230 267.841 238.154 C 267.787 233.162,267.824 228.868,267.923 228.611 C 268.064 228.244,270.103 228.165,277.466 228.241 L 286.830 228.338 286.830 237.784 M189.282 270.306 L 189.282 279.758 179.927 279.661 L 170.572 279.564 170.475 270.670 C 170.421 265.778,170.457 261.568,170.554 261.315 C 170.691 260.959,172.848 260.854,180.007 260.854 L 189.282 260.854 189.282 270.306 M221.895 270.391 L 221.992 279.746 212.540 279.746 L 203.088 279.746 203.088 270.294 L 203.088 260.842 212.443 260.938 L 221.798 261.035 221.895 270.391 M107.737 320.964 C 109.733 322.961,108.399 325.159,105.191 325.159 C 102.214 325.159,101.102 323.785,102.263 321.541 C 103.184 319.759,106.213 319.441,107.737 320.964 M120.368 320.527 C 121.476 321.344,121.753 323.187,120.926 324.238 C 119.164 326.478,111.172 325.284,111.172 322.782 C 111.172 320.449,117.994 318.776,120.368 320.527 " stroke="none" fill="#ecf6f1" fill-rule="evenodd"></path><path id="path2" d="M144.051 103.216 C 142.452 103.381,140.654 103.686,140.054 103.893 L 138.965 104.270 140.223 104.081 C 146.249 103.179,154.745 103.188,159.452 104.102 L 160.400 104.286 159.506 103.897 C 157.416 102.990,149.572 102.644,144.051 103.216 M135.332 104.874 C 134.133 105.163,132.988 105.577,132.788 105.796 C 132.533 106.075,132.617 106.125,133.073 105.964 C 133.429 105.839,134.737 105.473,135.979 105.152 C 138.197 104.578,139.044 104.230,138.026 104.309 C 137.743 104.331,136.530 104.586,135.332 104.874 M163.836 105.187 C 165.527 105.664,166.981 105.983,167.067 105.897 C 167.264 105.700,166.779 105.532,163.980 104.829 C 160.510 103.958,160.405 104.220,163.836 105.187 M287.811 105.335 C 285.970 105.800,285.928 106.155,287.752 105.830 C 289.781 105.468,296.763 105.453,299.183 105.805 C 300.680 106.023,300.872 105.993,300.272 105.633 C 299.407 105.113,289.616 104.879,287.811 105.335 M130.790 106.343 C 128.868 107.049,127.797 107.573,127.953 107.729 C 128.053 107.829,129.018 107.509,130.098 107.019 C 131.830 106.232,132.276 105.797,130.790 106.343 M169.620 107.011 C 170.695 107.516,171.653 107.851,171.748 107.755 C 171.938 107.565,169.940 106.667,168.542 106.314 C 168.060 106.192,168.545 106.506,169.620 107.011 M282.834 106.933 C 279.026 108.430,275.297 111.057,272.635 114.119 C 271.633 115.271,271.899 115.092,273.590 113.478 C 276.160 111.024,279.042 109.079,282.440 107.505 C 284.647 106.483,284.896 106.122,282.834 106.933 M306.023 108.220 C 310.117 110.310,313.496 113.106,315.974 116.454 C 316.915 117.726,317.752 118.700,317.833 118.619 C 319.174 117.277,307.794 107.862,303.361 106.647 C 302.861 106.510,304.059 107.218,306.023 108.220 M125.250 108.836 C 123.841 109.601,124.001 109.864,125.431 109.137 C 126.801 108.440,127.043 108.260,126.582 108.280 C 126.399 108.288,125.799 108.538,125.250 108.836 M173.297 108.663 C 173.597 108.858,175.087 109.719,176.609 110.576 C 178.130 111.434,180.396 112.911,181.643 113.860 C 182.891 114.809,183.853 115.420,183.781 115.218 C 183.471 114.342,173.999 108.220,173.056 108.287 C 172.889 108.298,172.997 108.468,173.297 108.663 M122.367 110.458 C 121.630 110.847,120.907 111.361,120.758 111.601 C 120.610 111.841,121.131 111.653,121.916 111.183 C 124.375 109.710,124.666 109.243,122.367 110.458 M144.233 110.075 C 103.541 115.472,88.503 166.297,119.835 192.530 C 150.145 217.906,196.549 196.187,196.549 156.624 C 196.549 128.702,171.543 106.452,144.233 110.075 M118.912 112.840 L 117.893 113.781 119.074 112.997 C 120.155 112.278,120.508 111.898,120.093 111.898 C 120.004 111.898,119.473 112.322,118.912 112.840 M114.800 115.924 C 111.074 119.131,105.826 125.391,103.708 129.155 C 102.367 131.540,102.793 131.136,104.649 128.265 C 107.601 123.698,111.827 118.873,115.895 115.426 C 116.994 114.495,117.774 113.729,117.630 113.724 C 117.485 113.719,116.212 114.709,114.800 115.924 M187.329 118.832 C 191.378 123.010,194.551 127.175,196.597 130.998 C 198.572 134.687,197.932 134.436,205.086 134.332 L 211.262 134.242 211.448 130.906 C 211.713 126.139,213.850 124.326,216.904 126.278 L 217.802 126.852 216.944 126.096 C 214.070 123.564,211.081 126.040,211.081 130.954 L 211.081 133.697 204.809 133.697 L 198.536 133.697 196.976 130.865 C 194.417 126.222,188.572 118.901,185.622 116.642 C 184.548 115.820,185.114 116.546,187.329 118.832 M269.203 118.450 C 268.354 119.855,267.734 121.079,267.825 121.170 C 267.916 121.261,268.370 120.643,268.834 119.796 C 269.298 118.949,270.071 117.725,270.552 117.075 C 271.033 116.426,271.274 115.895,271.087 115.895 C 270.899 115.895,270.052 117.044,269.203 118.450 M151.660 118.155 C 152.150 118.855,152.225 121.021,152.225 134.456 L 152.225 149.949 153.711 150.932 C 155.891 152.375,157.197 155.343,156.706 157.739 C 156.296 159.744,156.152 159.548,160.421 162.803 C 179.532 177.376,179.713 177.548,178.528 180.045 C 176.889 183.499,176.165 183.160,162.261 172.427 C 152.866 165.176,150.465 163.486,149.545 163.480 C 142.869 163.433,140.468 154.124,146.252 150.711 L 147.502 149.974 147.502 134.468 C 147.502 117.143,147.474 117.348,149.864 117.348 C 150.723 117.348,151.265 117.591,151.660 118.155 M318.872 121.158 C 319.204 121.855,319.541 122.361,319.620 122.282 C 319.786 122.115,318.683 119.891,318.434 119.891 C 318.343 119.891,318.540 120.461,318.872 121.158 M330.972 120.334 C 330.272 120.542,329.864 120.769,330.064 120.839 C 330.263 120.909,331.244 120.739,332.243 120.461 C 333.309 120.165,333.684 119.956,333.152 119.956 C 332.652 119.956,331.671 120.126,330.972 120.334 M326.158 122.279 C 325.609 122.577,325.159 122.889,325.159 122.972 C 325.159 123.233,327.330 122.379,327.543 122.035 C 327.834 121.563,327.306 121.656,326.158 122.279 M266.728 123.422 C 266.508 123.978,266.239 124.923,266.130 125.522 C 266.021 126.122,266.260 125.726,266.661 124.643 C 267.402 122.644,267.461 121.568,266.728 123.422 M323.473 123.859 C 322.845 124.242,322.223 124.732,322.089 124.948 C 321.734 125.522,320.799 125.428,320.799 124.817 C 320.799 124.529,320.618 124.182,320.397 124.045 C 319.955 123.772,320.295 125.282,320.798 125.825 C 321.011 126.056,323.536 124.450,324.765 123.302 C 325.137 122.955,324.519 123.221,323.473 123.859 M235.386 126.469 C 234.397 127.529,234.332 127.783,234.332 130.647 L 234.332 133.697 226.354 133.697 L 218.376 133.697 218.246 130.699 L 218.116 127.702 218.141 130.972 L 218.165 134.242 226.340 134.242 L 234.514 134.242 234.606 131.517 C 234.724 128.027,234.893 127.340,235.859 126.441 C 236.699 125.657,239.193 125.408,239.600 126.067 C 239.724 126.267,240.020 126.425,240.258 126.419 C 241.418 126.388,239.090 125.341,237.860 125.341 C 236.740 125.341,236.218 125.579,235.386 126.469 M258.987 126.096 L 258.129 126.852 259.027 126.278 C 261.801 124.505,264.212 126.219,264.418 130.111 C 264.544 132.470,265.207 134.677,265.217 132.770 C 265.220 132.381,265.304 131.408,265.406 130.609 C 265.544 129.522,265.503 129.339,265.246 129.882 C 264.935 130.537,264.899 130.509,264.876 129.598 C 264.785 126.019,261.376 123.991,258.987 126.096 M240.711 127.157 C 240.900 127.457,241.135 129.173,241.235 130.972 L 241.417 134.242 243.778 134.215 C 245.912 134.191,248.116 133.553,247.655 133.093 C 247.555 132.993,247.143 133.088,246.740 133.304 C 246.336 133.520,245.014 133.697,243.802 133.697 L 241.599 133.697 241.599 130.653 C 241.599 128.233,241.473 127.507,240.984 127.111 C 240.453 126.680,240.416 126.687,240.711 127.157 M257.584 129.500 C 257.584 130.752,257.583 130.752,255.677 130.886 L 253.769 131.019 255.858 131.086 L 257.947 131.153 257.947 129.700 C 257.947 128.901,257.866 128.247,257.766 128.247 C 257.666 128.247,257.584 128.811,257.584 129.500 M250.563 131.681 C 249.355 132.112,248.439 132.618,248.895 132.601 C 249.527 132.579,253.244 131.192,252.679 131.189 C 252.280 131.187,251.328 131.408,250.563 131.681 M101.527 133.004 C 101.207 133.622,101.035 134.217,101.144 134.326 C 101.253 134.435,101.515 134.069,101.726 133.513 C 101.938 132.957,102.197 132.362,102.303 132.191 C 102.409 132.020,102.408 131.880,102.301 131.880 C 102.195 131.880,101.846 132.386,101.527 133.004 M100.099 136.227 C 99.757 136.779,98.832 140.006,98.974 140.149 C 99.044 140.219,99.436 139.287,99.845 138.077 C 100.534 136.037,100.624 135.376,100.099 136.227 M97.961 142.725 C 97.661 143.734,97.321 145.344,97.206 146.303 C 97.075 147.390,97.327 146.747,97.877 144.596 C 98.815 140.923,98.872 139.658,97.961 142.725 M363.813 144.231 C 363.851 146.590,364.910 147.880,366.757 147.819 C 366.957 147.812,366.467 147.503,365.668 147.133 C 364.243 146.472,364.210 146.414,363.995 144.165 L 363.775 141.871 363.813 144.231 M368.756 148.807 C 369.655 149.320,370.705 150.013,371.089 150.346 C 371.486 150.692,371.663 150.742,371.500 150.464 C 371.157 149.880,368.051 147.864,367.504 147.870 C 367.293 147.872,367.856 148.294,368.756 148.807 M96.117 154.859 C 95.995 156.308,96.044 158.311,96.225 159.310 C 96.508 160.875,96.560 160.510,96.597 156.676 C 96.645 151.671,96.447 150.924,96.117 154.859 M97.206 166.867 C 97.427 168.703,98.416 172.368,98.632 172.152 C 98.701 172.082,98.362 170.472,97.877 168.574 C 97.327 166.423,97.075 165.780,97.206 166.867 M99.183 174.399 C 99.183 174.915,100.194 177.293,100.414 177.293 C 100.512 177.293,100.341 176.558,100.035 175.658 C 99.497 174.081,99.183 173.616,99.183 174.399 M381.158 175.295 C 381.125 175.695,381.007 176.431,380.896 176.930 C 380.722 177.714,380.751 177.750,381.106 177.193 C 381.333 176.839,381.450 176.103,381.367 175.558 C 381.269 174.913,381.196 174.822,381.158 175.295 M380.061 179.357 C 377.907 185.522,372.338 191.223,365.869 193.885 C 364.759 194.341,364.115 194.719,364.438 194.723 C 365.250 194.735,370.037 192.305,372.065 190.851 C 375.366 188.485,381.223 180.000,380.680 178.370 C 380.606 178.149,380.328 178.593,380.061 179.357 M100.999 178.886 C 100.999 179.276,102.080 181.290,102.289 181.290 C 102.389 181.290,102.201 180.758,101.870 180.109 C 101.196 178.783,100.999 178.506,100.999 178.886 M102.458 181.792 C 102.451 182.170,103.892 184.559,104.126 184.559 C 104.215 184.559,104.044 184.110,103.747 183.560 C 102.958 182.104,102.464 181.426,102.458 181.792 M104.826 185.922 C 107.605 190.255,113.125 196.156,117.348 199.308 L 120.222 201.453 120.233 232.698 L 120.244 263.942 118.954 262.489 C 118.246 261.689,117.798 261.297,117.961 261.618 C 118.347 262.378,120.148 264.487,120.413 264.487 C 120.525 264.487,120.618 250.283,120.618 232.923 L 120.618 201.360 117.802 199.262 C 114.136 196.530,109.662 191.963,106.818 188.048 C 104.653 185.068,103.466 183.801,104.826 185.922 M361.490 195.187 C 360.671 195.433,350.405 195.622,332.698 195.718 L 305.177 195.867 305.267 247.162 L 305.356 298.456 305.450 247.321 L 305.543 196.185 330.701 196.175 C 354.990 196.166,361.798 195.948,363.193 195.137 C 364.049 194.639,363.240 194.663,361.490 195.187 M97.061 254.720 C 94.701 255.283,95.498 255.511,98.146 255.030 C 100.233 254.651,104.180 254.762,106.812 255.273 C 107.636 255.434,107.656 255.410,107.034 255.018 C 106.133 254.449,99.078 254.239,97.061 254.720 M89.932 257.408 C 87.867 258.581,85.070 260.959,83.944 262.498 C 83.655 262.892,84.391 262.289,85.579 261.156 C 86.767 260.024,88.842 258.497,90.191 257.762 C 92.468 256.523,93.047 256.096,92.371 256.154 C 92.221 256.167,91.123 256.732,89.932 257.408 M112.165 257.368 C 113.411 258.040,115.011 259.099,115.720 259.721 C 116.429 260.344,117.127 260.848,117.270 260.840 C 117.863 260.809,114.468 258.196,112.544 257.204 C 109.683 255.727,109.372 255.862,112.165 257.368 M82.347 264.487 C 81.993 265.086,81.783 265.577,81.880 265.577 C 81.978 265.577,82.407 265.086,82.834 264.487 C 83.261 263.887,83.471 263.397,83.300 263.397 C 83.130 263.397,82.701 263.887,82.347 264.487 M80.636 267.428 C 80.218 268.247,79.939 268.979,80.015 269.055 C 80.091 269.132,80.509 268.462,80.944 267.567 C 81.934 265.529,81.666 265.409,80.636 267.428 M79.270 271.107 C 79.052 271.962,78.780 273.260,78.664 273.991 C 78.453 275.321,78.453 275.322,77.158 274.964 C 75.326 274.458,75.247 274.812,77.069 275.358 C 78.803 275.877,79.184 275.589,79.197 273.751 C 79.201 273.152,79.379 272.033,79.593 271.265 C 79.806 270.497,79.909 269.797,79.822 269.710 C 79.735 269.623,79.487 270.252,79.270 271.107 M170.572 305.177 C 170.572 307.537,170.692 309.279,170.839 309.048 C 170.986 308.817,171.106 307.075,171.106 305.177 C 171.106 303.279,170.986 301.537,170.839 301.306 C 170.692 301.076,170.572 302.817,170.572 305.177 M169.406 312.474 C 168.972 313.665,168.759 314.552,168.931 314.445 C 169.288 314.225,170.537 310.652,170.329 310.445 C 170.255 310.370,169.840 311.284,169.406 312.474 M167.643 315.985 C 167.284 316.535,166.096 317.925,165.002 319.074 C 163.909 320.223,163.131 321.163,163.274 321.163 C 163.705 321.163,167.503 317.060,168.068 315.985 C 168.356 315.436,168.526 314.986,168.443 314.986 C 168.361 314.986,168.001 315.436,167.643 315.985 M160.763 322.283 C 159.764 322.856,159.076 323.329,159.233 323.334 C 159.702 323.348,162.329 321.931,162.576 321.531 C 162.862 321.068,162.926 321.041,160.763 322.283 M131.913 323.049 C 131.879 324.076,133.016 325.184,134.050 325.130 C 134.355 325.114,134.157 324.938,133.609 324.738 C 132.949 324.497,132.499 323.984,132.279 323.222 C 131.954 322.100,131.945 322.096,131.913 323.049 M98.668 323.797 L 98.100 324.977 98.823 324.120 C 99.221 323.648,99.546 323.117,99.546 322.939 C 99.546 322.318,99.231 322.625,98.668 323.797 M101.731 323.001 C 101.724 323.780,103.069 325.160,103.829 325.154 C 104.271 325.150,104.190 325.016,103.549 324.692 C 103.054 324.442,102.443 323.831,102.192 323.335 C 101.918 322.792,101.734 322.660,101.731 323.001 M108.079 323.427 C 107.882 323.873,107.312 324.443,106.812 324.693 C 106.149 325.025,106.075 325.150,106.540 325.154 C 107.316 325.160,108.629 323.908,108.629 323.161 C 108.629 322.413,108.499 322.476,108.079 323.427 M111.186 323.001 C 111.166 323.783,112.518 325.164,113.275 325.136 C 113.746 325.118,113.703 325.035,113.101 324.792 C 112.664 324.616,112.057 324.014,111.753 323.453 C 111.432 322.860,111.195 322.671,111.186 323.001 M120.970 323.726 C 120.750 324.137,120.213 324.617,119.776 324.793 C 119.244 325.008,119.174 325.120,119.562 325.136 C 119.881 325.149,120.387 324.873,120.688 324.523 C 121.394 323.701,121.802 322.979,121.560 322.979 C 121.455 322.979,121.190 323.315,120.970 323.726 M156.585 324.069 C 155.486 324.429,154.832 324.740,155.132 324.758 C 155.983 324.810,158.351 324.081,158.591 323.692 C 158.710 323.500,158.757 323.358,158.695 323.378 C 158.634 323.398,157.684 323.709,156.585 324.069 M151.958 325.056 C 152.510 325.140,153.327 325.138,153.774 325.051 C 154.221 324.965,153.769 324.897,152.770 324.900 C 151.771 324.902,151.406 324.973,151.958 325.056 " stroke="none" fill="#84cbd3" fill-rule="evenodd"></path><path id="path3" d="M291.826 109.983 C 292.575 110.061,293.801 110.061,294.550 109.983 C 295.300 109.905,294.687 109.841,293.188 109.841 C 291.689 109.841,291.076 109.905,291.826 109.983 M307.720 114.555 C 307.720 114.618,308.252 115.149,308.901 115.736 L 310.082 116.803 309.015 115.622 C 308.020 114.522,307.720 114.274,307.720 114.555 M340.872 120.141 C 341.222 120.233,341.794 120.233,342.144 120.141 C 342.493 120.050,342.207 119.975,341.508 119.975 C 340.808 119.975,340.522 120.050,340.872 120.141 M337.602 124.501 C 337.952 124.592,338.524 124.592,338.874 124.501 C 339.223 124.410,338.937 124.335,338.238 124.335 C 337.539 124.335,337.252 124.410,337.602 124.501 M283.772 125.471 C 283.856 125.543,284.414 125.711,285.014 125.845 C 285.810 126.024,285.957 125.990,285.559 125.721 C 285.068 125.389,283.408 125.157,283.772 125.471 M281.212 127.497 C 281.005 127.883,280.836 129.526,280.836 131.148 L 280.836 134.096 275.403 133.987 C 272.415 133.927,270.098 134.006,270.254 134.161 C 270.411 134.317,272.896 134.398,275.778 134.343 L 281.017 134.242 281.199 130.972 C 281.299 129.173,281.513 127.498,281.674 127.248 C 281.836 126.998,281.883 126.794,281.778 126.794 C 281.673 126.794,281.419 127.110,281.212 127.497 M287.533 130.972 L 287.557 134.242 289.648 134.271 L 291.738 134.301 289.752 134.163 L 287.766 134.025 287.638 130.863 L 287.509 127.702 287.533 130.972 M264.240 130.427 C 264.240 131.726,264.306 132.257,264.386 131.608 C 264.467 130.958,264.467 129.896,264.386 129.246 C 264.306 128.597,264.240 129.128,264.240 130.427 M322.979 130.609 C 322.097 131.508,321.456 132.243,321.556 132.243 C 321.656 132.243,322.460 131.508,323.342 130.609 C 324.225 129.709,324.865 128.974,324.765 128.974 C 324.665 128.974,323.862 129.709,322.979 130.609 M352.589 130.427 C 353.369 131.226,354.089 131.880,354.189 131.880 C 354.289 131.880,353.732 131.226,352.952 130.427 C 352.171 129.628,351.451 128.974,351.351 128.974 C 351.251 128.974,351.808 129.628,352.589 130.427 M270.028 130.609 C 270.032 131.408,270.106 131.692,270.193 131.240 C 270.280 130.788,270.277 130.134,270.186 129.787 C 270.095 129.440,270.024 129.809,270.028 130.609 M301.906 139.782 C 302.382 140.431,302.827 140.963,302.897 140.963 C 303.173 140.963,302.272 139.600,301.676 139.116 C 301.284 138.798,301.371 139.051,301.906 139.782 M200.545 139.965 C 200.545 140.015,200.877 141.201,201.283 142.599 C 204.338 153.115,203.526 166.094,199.139 176.874 L 198.081 179.473 248.359 179.473 L 298.638 179.473 298.638 235.422 L 298.638 291.371 231.904 291.371 L 165.169 291.371 164.238 290.554 L 163.306 289.737 164.187 290.736 L 165.068 291.735 231.831 291.735 C 268.551 291.735,298.666 291.612,298.753 291.462 C 298.840 291.312,298.972 258.480,299.047 218.501 L 299.183 145.811 298.083 144.032 C 296.414 141.332,294.150 140.087,290.614 139.927 L 287.801 139.799 287.679 144.167 C 287.521 149.810,286.220 151.523,283.090 150.207 C 281.512 149.543,281.398 149.195,281.199 144.414 L 281.017 140.054 272.783 139.957 L 264.548 139.859 264.427 144.198 C 264.283 149.337,263.715 150.409,261.137 150.409 C 258.470 150.409,257.947 149.399,257.947 144.249 L 257.947 139.873 249.591 139.873 L 241.235 139.873 241.235 143.893 C 241.235 149.124,240.597 150.374,237.915 150.397 C 235.297 150.420,234.894 149.662,234.757 144.447 L 234.636 139.873 226.310 139.873 L 217.984 139.873 217.984 144.249 C 217.984 149.390,217.454 150.419,214.821 150.397 C 212.098 150.374,211.444 149.071,211.444 143.664 L 211.444 139.873 205.995 139.873 C 202.997 139.873,200.545 139.914,200.545 139.965 M359.073 145.322 C 359.073 147.021,359.136 147.716,359.212 146.866 C 359.289 146.017,359.289 144.628,359.212 143.778 C 359.136 142.929,359.073 143.624,359.073 145.322 M356.680 148.486 C 357.132 148.573,357.786 148.569,358.133 148.479 C 358.481 148.388,358.111 148.316,357.312 148.321 C 356.512 148.325,356.228 148.399,356.680 148.486 M374.190 153.043 C 375.696 154.647,376.022 154.935,376.022 154.662 C 376.022 154.604,375.245 153.828,374.296 152.937 L 372.570 151.317 374.190 153.043 M346.574 153.224 L 345.322 154.587 346.685 153.335 C 347.953 152.169,348.214 151.862,347.937 151.862 C 347.876 151.862,347.263 152.475,346.574 153.224 M348.206 154.859 L 347.139 156.040 348.320 154.973 C 348.969 154.386,349.500 153.855,349.500 153.792 C 349.500 153.511,349.201 153.759,348.206 154.859 M371.117 156.585 C 371.898 157.384,372.618 158.038,372.718 158.038 C 372.818 158.038,372.261 157.384,371.480 156.585 C 370.700 155.786,369.980 155.132,369.880 155.132 C 369.780 155.132,370.337 155.786,371.117 156.585 M381.588 170.391 C 381.588 171.689,381.654 172.221,381.734 171.571 C 381.815 170.922,381.815 169.859,381.734 169.210 C 381.654 168.560,381.588 169.092,381.588 170.391 M370.731 185.377 L 369.664 186.558 370.845 185.491 C 371.494 184.904,372.025 184.372,372.025 184.310 C 372.025 184.029,371.726 184.276,370.731 185.377 M187.725 193.927 C 185.629 196.055,185.617 196.201,187.557 196.124 L 189.101 196.063 187.686 195.918 L 186.271 195.772 188.036 193.980 C 189.006 192.995,189.718 192.189,189.618 192.189 C 189.519 192.189,188.666 192.971,187.725 193.927 M318.374 195.731 C 325.532 195.786,337.139 195.786,344.168 195.731 C 351.197 195.676,345.341 195.631,331.153 195.631 C 316.966 195.631,311.215 195.676,318.374 195.731 M207.923 196.094 C 210.482 196.156,214.570 196.156,217.006 196.093 C 219.442 196.030,217.348 195.979,212.352 195.979 C 207.357 195.980,205.364 196.031,207.923 196.094 M245.050 196.091 L 253.951 196.198 253.951 205.274 L 253.951 214.351 244.875 214.351 L 235.798 214.351 235.691 205.177 L 235.585 196.004 235.594 205.268 L 235.604 214.532 244.868 214.532 L 254.133 214.532 254.133 205.268 L 254.133 196.004 245.141 195.994 L 236.149 195.984 245.050 196.091 M272.955 196.094 C 275.514 196.156,279.601 196.156,282.037 196.093 C 284.474 196.030,282.380 195.979,277.384 195.979 C 272.389 195.980,270.396 196.031,272.955 196.094 M186.891 205.268 C 186.891 209.164,186.945 210.758,187.010 208.810 C 187.075 206.862,187.075 203.674,187.010 201.726 C 186.945 199.777,186.891 201.371,186.891 205.268 M205.420 205.268 C 205.420 209.164,205.473 210.758,205.539 208.810 C 205.604 206.862,205.604 203.674,205.539 201.726 C 205.473 199.777,205.420 201.371,205.420 205.268 M270.452 205.268 C 270.452 209.164,270.505 210.758,270.571 208.810 C 270.636 206.862,270.636 203.674,270.571 201.726 C 270.505 199.777,270.452 201.371,270.452 205.268 M284.257 205.268 C 284.257 209.164,284.311 210.758,284.376 208.810 C 284.442 206.862,284.442 203.674,284.376 201.726 C 284.311 199.777,284.257 201.371,284.257 205.268 M175.386 203.296 C 174.028 204.033,174.110 204.340,175.477 203.633 C 176.076 203.323,176.567 202.992,176.567 202.897 C 176.567 202.663,176.528 202.677,175.386 203.296 M173.070 208.356 C 173.070 210.554,173.130 211.406,173.203 210.250 C 173.275 209.094,173.274 207.296,173.201 206.254 C 173.128 205.212,173.069 206.158,173.070 208.356 M138.056 211.569 L 138.238 214.532 147.593 214.629 L 156.948 214.726 156.948 212.202 C 156.948 209.968,157.032 209.659,157.680 209.514 C 158.289 209.377,158.274 209.357,157.590 209.398 C 156.832 209.442,156.758 209.641,156.659 211.898 L 156.552 214.351 147.486 214.351 L 138.420 214.351 138.420 211.647 C 138.420 210.160,138.297 208.868,138.147 208.774 C 137.997 208.681,137.956 209.939,138.056 211.569 M144.868 209.884 C 145.318 209.971,146.054 209.971,146.503 209.884 C 146.953 209.797,146.585 209.727,145.686 209.727 C 144.787 209.727,144.419 209.797,144.868 209.884 M175.183 214.622 C 177.719 214.684,181.969 214.684,184.629 214.622 C 187.288 214.560,185.213 214.509,180.018 214.509 C 174.823 214.509,172.647 214.560,175.183 214.622 M207.517 214.622 C 210.053 214.684,214.304 214.684,216.963 214.622 C 219.623 214.560,217.548 214.509,212.352 214.509 C 207.157 214.509,204.981 214.560,207.517 214.622 M272.549 214.622 C 275.085 214.684,279.336 214.684,281.995 214.622 C 284.654 214.560,282.579 214.509,277.384 214.509 C 272.189 214.509,270.013 214.560,272.549 214.622 M138.215 237.784 C 138.215 242.979,138.266 245.054,138.328 242.395 C 138.390 239.735,138.390 235.484,138.328 232.949 C 138.265 230.413,138.214 232.589,138.215 237.784 M156.743 237.784 C 156.743 242.979,156.794 245.054,156.857 242.395 C 156.919 239.735,156.919 235.484,156.856 232.949 C 156.794 230.413,156.743 232.589,156.743 237.784 M235.581 237.784 C 235.581 242.979,235.632 245.054,235.694 242.395 C 235.756 239.735,235.756 235.484,235.694 232.949 C 235.631 230.413,235.580 232.589,235.581 237.784 M254.109 237.784 C 254.109 242.979,254.160 245.054,254.223 242.395 C 254.285 239.735,254.285 235.484,254.222 232.949 C 254.160 230.413,254.109 232.589,254.109 237.784 M140.599 230.972 C 140.599 231.122,143.706 231.244,147.502 231.244 C 151.299 231.244,154.405 231.122,154.405 230.972 C 154.405 230.822,151.299 230.699,147.502 230.699 C 143.706 230.699,140.599 230.822,140.599 230.972 M173.098 231.158 C 172.998 231.419,172.961 234.569,173.016 238.159 L 173.115 244.687 180.018 244.687 L 186.921 244.687 186.921 237.784 L 186.921 230.881 180.101 230.782 C 174.753 230.705,173.241 230.786,173.098 231.158 M205.429 231.166 C 205.331 231.422,205.295 234.569,205.350 238.159 L 205.450 244.687 212.444 244.699 L 219.437 244.711 212.534 244.600 L 205.631 244.489 205.631 237.761 L 205.631 231.032 212.534 231.138 C 216.331 231.197,219.437 231.122,219.437 230.972 C 219.437 230.457,205.628 230.648,205.429 231.166 M237.965 230.972 C 237.964 231.122,240.049 231.202,242.597 231.150 C 251.171 230.975,251.997 230.842,244.959 230.771 C 241.113 230.731,237.965 230.822,237.965 230.972 M270.464 231.158 C 270.364 231.419,270.327 234.569,270.382 238.159 L 270.481 244.687 277.384 244.687 L 284.287 244.687 284.287 237.784 L 284.287 230.881 277.467 230.782 C 272.119 230.705,270.607 230.786,270.464 231.158 M186.739 237.784 L 186.739 244.505 180.018 244.505 L 173.297 244.505 173.297 237.784 L 173.297 231.063 180.018 231.063 L 186.739 231.063 186.739 237.784 M284.105 237.784 L 284.105 244.505 277.384 244.505 L 270.663 244.505 270.663 237.784 L 270.663 231.063 277.384 231.063 L 284.105 231.063 284.105 237.784 M143.960 244.776 C 145.908 244.841,149.096 244.841,151.045 244.776 C 152.993 244.711,151.399 244.657,147.502 244.657 C 143.606 244.657,142.012 244.711,143.960 244.776 M241.326 244.776 C 243.274 244.841,246.462 244.841,248.411 244.776 C 250.359 244.711,248.765 244.657,244.868 244.657 C 240.972 244.657,239.378 244.711,241.326 244.776 M180.018 247.048 L 170.936 247.249 179.906 247.330 C 185.584 247.382,188.959 247.278,189.101 247.048 C 189.224 246.848,189.275 246.721,189.213 246.766 C 189.151 246.811,185.014 246.938,180.018 247.048 M203.403 247.146 C 203.557 247.299,207.677 247.381,212.559 247.327 L 221.435 247.229 212.279 247.048 C 207.243 246.948,203.249 246.992,203.403 247.146 M268.358 247.139 C 268.450 247.289,272.512 247.411,277.384 247.411 C 282.256 247.411,286.318 247.289,286.411 247.139 C 286.503 246.989,282.441 246.866,277.384 246.866 C 272.327 246.866,268.265 246.989,268.358 247.139 M143.052 247.320 C 145.500 247.382,149.505 247.382,151.953 247.320 C 154.401 247.257,152.398 247.205,147.502 247.205 C 142.607 247.205,140.604 247.257,143.052 247.320 M240.418 247.320 C 242.866 247.382,246.871 247.382,249.319 247.320 C 251.767 247.257,249.764 247.205,244.868 247.205 C 239.973 247.205,237.970 247.257,240.418 247.320 M138.248 261.302 C 137.957 262.173,137.875 265.941,138.147 265.941 C 138.297 265.940,138.420 264.877,138.420 263.579 L 138.420 261.217 147.514 261.217 L 156.609 261.217 156.506 270.482 C 156.450 275.577,156.529 279.746,156.682 279.746 C 156.835 279.746,156.917 275.536,156.864 270.391 L 156.767 261.035 147.584 260.938 C 140.426 260.863,138.368 260.943,138.248 261.302 M175.183 261.125 C 177.719 261.187,181.969 261.188,184.629 261.125 C 187.288 261.063,185.213 261.012,180.018 261.012 C 174.823 261.012,172.647 261.063,175.183 261.125 M207.517 261.125 C 210.053 261.187,214.304 261.188,216.963 261.125 C 219.623 261.063,217.548 261.012,212.352 261.012 C 207.157 261.012,204.981 261.063,207.517 261.125 M113.896 264.487 C 114.881 265.486,115.767 266.303,115.867 266.303 C 115.967 266.303,115.244 265.486,114.260 264.487 C 113.276 263.488,112.389 262.670,112.289 262.670 C 112.189 262.670,112.912 263.488,113.896 264.487 M173.086 270.300 C 173.086 274.196,173.139 275.790,173.205 273.842 C 173.270 271.894,173.270 268.706,173.205 266.757 C 173.139 264.809,173.086 266.403,173.086 270.300 M186.891 270.300 C 186.891 274.196,186.945 275.790,187.010 273.842 C 187.075 271.894,187.075 268.706,187.010 266.757 C 186.945 264.809,186.891 266.403,186.891 270.300 M205.339 270.209 C 205.300 274.055,205.391 277.203,205.540 277.203 C 205.690 277.204,205.770 275.119,205.718 272.571 C 205.543 263.997,205.411 263.171,205.339 270.209 M135.604 265.827 C 135.954 265.919,136.526 265.919,136.876 265.827 C 137.225 265.736,136.939 265.661,136.240 265.661 C 135.540 265.661,135.254 265.736,135.604 265.827 M132.698 266.190 C 133.047 266.282,133.619 266.282,133.969 266.190 C 134.319 266.099,134.033 266.024,133.333 266.024 C 132.634 266.024,132.348 266.099,132.698 266.190 M135.604 270.550 C 135.954 270.642,136.526 270.642,136.876 270.550 C 137.225 270.459,136.939 270.384,136.240 270.384 C 135.540 270.384,135.254 270.459,135.604 270.550 M147.487 275.114 C 148.993 276.718,149.319 277.006,149.319 276.733 C 149.319 276.675,148.542 275.898,147.593 275.008 L 145.867 273.388 147.487 275.114 M124.594 275.295 L 123.342 276.658 124.705 275.406 C 125.973 274.240,126.234 273.933,125.957 273.933 C 125.896 273.933,125.283 274.546,124.594 275.295 M71.487 279.282 C 72.140 279.363,73.121 279.362,73.667 279.279 C 74.213 279.196,73.678 279.130,72.480 279.132 C 71.281 279.134,70.834 279.202,71.487 279.282 M175.183 279.654 C 177.719 279.716,181.969 279.716,184.629 279.654 C 187.288 279.592,185.213 279.541,180.018 279.541 C 174.823 279.540,172.647 279.591,175.183 279.654 M207.517 279.654 C 210.053 279.716,214.304 279.716,216.963 279.654 C 219.623 279.592,217.548 279.541,212.352 279.541 C 207.157 279.540,204.981 279.591,207.517 279.654 M65.012 282.198 L 63.760 283.560 65.123 282.308 C 66.391 281.143,66.652 280.836,66.375 280.836 C 66.314 280.836,65.701 281.449,65.012 282.198 M57.766 285.135 C 57.766 285.368,57.398 285.578,56.948 285.601 C 56.275 285.635,56.250 285.674,56.805 285.816 C 57.530 286.003,58.424 285.369,58.014 284.959 C 57.877 284.823,57.766 284.902,57.766 285.135 M61.139 289.809 C 60.697 290.269,60.467 290.645,60.629 290.645 C 60.983 290.645,62.305 289.232,62.093 289.080 C 62.011 289.021,61.582 289.349,61.139 289.809 M54.405 290.548 C 55.254 290.624,56.644 290.624,57.493 290.548 C 58.342 290.471,57.648 290.409,55.949 290.409 C 54.251 290.409,53.556 290.471,54.405 290.548 M143.730 292.462 C 143.007 293.262,142.421 294.121,142.427 294.370 C 142.433 294.619,142.618 294.496,142.838 294.096 C 143.058 293.697,143.739 292.838,144.352 292.189 C 144.964 291.540,145.370 291.008,145.254 291.008 C 145.138 291.008,144.452 291.663,143.730 292.462 M145.845 293.642 L 144.777 294.823 145.958 293.756 C 147.059 292.761,147.306 292.461,147.025 292.461 C 146.963 292.461,146.431 292.993,145.845 293.642 M160.581 293.665 C 160.581 293.728,161.113 294.259,161.762 294.846 L 162.943 295.913 161.876 294.732 C 160.881 293.631,160.581 293.384,160.581 293.665 M203.724 298.183 C 222.357 298.235,252.847 298.235,271.480 298.183 C 290.114 298.131,274.868 298.089,237.602 298.089 C 200.336 298.089,185.091 298.131,203.724 298.183 M40.446 305.359 C 40.448 306.757,40.513 307.285,40.592 306.531 C 40.671 305.778,40.669 304.633,40.589 303.988 C 40.509 303.343,40.445 303.960,40.446 305.359 M166.150 305.359 C 166.152 306.757,166.217 307.285,166.296 306.531 C 166.375 305.778,166.373 304.633,166.293 303.988 C 166.213 303.343,166.148 303.960,166.150 305.359 M165.710 308.508 C 165.687 308.841,165.573 309.414,165.458 309.780 C 165.260 310.410,165.271 310.411,165.665 309.798 C 165.893 309.442,166.006 308.870,165.916 308.526 C 165.768 307.964,165.748 307.962,165.710 308.508 M160.945 316.494 C 160.245 317.107,160.002 317.443,160.404 317.240 C 161.067 316.904,162.713 315.329,162.363 315.364 C 162.282 315.373,161.644 315.881,160.945 316.494 M64.759 320.345 C 70.704 320.401,80.431 320.401,86.376 320.345 C 92.321 320.289,87.457 320.243,75.568 320.243 C 63.678 320.243,58.815 320.289,64.759 320.345 M115.087 320.339 C 115.941 320.416,117.249 320.415,117.993 320.337 C 118.737 320.259,118.038 320.196,116.440 320.197 C 114.841 320.199,114.232 320.262,115.087 320.339 M138.692 320.344 C 141.340 320.406,145.672 320.406,148.320 320.344 C 150.967 320.282,148.801 320.231,143.506 320.231 C 138.211 320.231,136.045 320.282,138.692 320.344 M120.358 321.272 C 120.801 321.731,121.230 322.059,121.312 322.001 C 121.524 321.849,120.202 320.436,119.848 320.436 C 119.686 320.436,119.916 320.812,120.358 321.272 M65.512 325.068 C 71.471 325.124,81.117 325.124,86.947 325.068 C 92.777 325.012,87.902 324.966,76.113 324.966 C 64.323 324.966,59.553 325.012,65.512 325.068 M115.087 325.062 C 115.941 325.139,117.249 325.138,117.993 325.060 C 118.737 324.982,118.038 324.919,116.440 324.920 C 114.841 324.922,114.232 324.985,115.087 325.062 M138.510 325.067 C 140.858 325.130,144.700 325.130,147.048 325.067 C 149.396 325.004,147.475 324.952,142.779 324.952 C 138.084 324.952,136.163 325.004,138.510 325.067 " stroke="none" fill="#ec7c9c" fill-rule="evenodd"></path><path id="path4" d="M295.645 110.339 C 296.096 110.426,296.750 110.422,297.098 110.331 C 297.445 110.240,297.075 110.169,296.276 110.173 C 295.477 110.177,295.193 110.252,295.645 110.339 M299.728 137.080 C 299.728 137.143,300.259 137.674,300.908 138.261 L 302.089 139.328 301.022 138.147 C 300.027 137.047,299.728 136.799,299.728 137.080 M305.265 169.210 L 305.177 191.099 331.426 191.011 L 357.675 190.922 331.610 190.827 L 305.546 190.731 305.450 169.026 L 305.353 147.321 305.265 169.210 M376.852 170.572 C 376.855 171.571,376.926 171.937,377.009 171.385 C 377.093 170.832,377.090 170.015,377.004 169.568 C 376.918 169.121,376.850 169.573,376.852 170.572 M298.451 235.422 C 298.451 266.294,298.494 278.924,298.547 263.488 C 298.599 248.052,298.599 222.793,298.547 207.357 C 298.494 191.921,298.451 204.550,298.451 235.422 M267.920 196.283 C 267.823 196.536,267.788 200.828,267.841 205.819 L 267.939 214.896 268.120 205.359 C 268.298 196.031,268.282 195.339,267.920 196.283 M286.648 205.195 L 286.829 214.532 286.927 205.474 C 286.981 200.492,286.899 196.290,286.746 196.137 C 286.592 195.983,286.548 200.059,286.648 205.195 M221.775 205.450 C 221.775 210.645,221.826 212.720,221.888 210.060 C 221.951 207.401,221.950 203.150,221.888 200.614 C 221.826 198.078,221.775 200.254,221.775 205.450 M182.135 199.205 C 180.606 200.456,176.215 203.289,174.659 204.028 L 173.297 204.676 173.297 208.423 L 173.297 212.171 180.018 212.171 L 186.739 212.171 186.739 205.268 L 186.739 198.365 184.951 198.365 C 183.620 198.365,182.899 198.580,182.135 199.205 M205.631 205.260 L 205.631 212.171 212.542 212.171 L 219.453 212.171 219.354 205.359 L 219.255 198.547 212.443 198.448 L 205.631 198.349 205.631 205.260 M238.208 198.607 C 238.074 198.741,237.965 201.847,237.965 205.510 L 237.965 212.171 244.868 212.171 L 251.771 212.171 251.771 205.268 L 251.771 198.365 245.111 198.365 C 241.447 198.365,238.341 198.474,238.208 198.607 M270.663 205.268 L 270.663 212.171 277.384 212.171 L 284.105 212.171 284.105 205.268 L 284.105 198.365 277.384 198.365 L 270.663 198.365 270.663 205.268 M170.529 210.173 C 170.530 212.570,170.589 213.504,170.660 212.247 C 170.731 210.991,170.730 209.029,170.659 207.888 C 170.587 206.747,170.529 207.775,170.529 210.173 M140.777 209.571 C 140.679 209.669,140.599 210.294,140.599 210.960 L 140.599 212.171 147.502 212.171 L 154.405 212.171 154.405 211.081 L 154.405 209.991 149.591 209.964 C 146.944 209.950,143.917 209.815,142.866 209.666 C 141.815 209.516,140.875 209.473,140.777 209.571 M138.371 214.811 C 138.525 214.965,142.727 215.046,147.709 214.992 L 156.767 214.895 147.429 214.713 C 142.293 214.614,138.217 214.658,138.371 214.811 M235.660 214.805 C 235.753 214.955,239.896 215.077,244.868 215.077 C 249.840 215.077,253.984 214.955,254.076 214.805 C 254.169 214.655,250.025 214.532,244.868 214.532 C 239.711 214.532,235.568 214.655,235.660 214.805 M175.589 214.986 C 178.148 215.048,182.235 215.048,184.671 214.985 C 187.108 214.922,185.014 214.871,180.018 214.871 C 175.023 214.872,173.029 214.923,175.589 214.986 M207.923 214.986 C 210.482 215.048,214.570 215.048,217.006 214.985 C 219.442 214.922,217.348 214.871,212.352 214.871 C 207.357 214.872,205.364 214.923,207.923 214.986 M272.955 214.986 C 275.514 215.048,279.601 215.048,282.037 214.985 C 284.474 214.922,282.380 214.871,277.384 214.871 C 272.389 214.872,270.396 214.923,272.955 214.986 M142.870 228.428 C 145.418 228.490,149.587 228.490,152.134 228.428 C 154.682 228.365,152.598 228.314,147.502 228.314 C 142.407 228.314,140.322 228.365,142.870 228.428 M170.633 228.398 C 170.297 228.734,170.326 246.965,170.663 247.174 C 170.813 247.267,170.889 243.110,170.833 237.937 L 170.730 228.532 180.097 228.428 L 189.464 228.325 180.170 228.241 C 175.058 228.194,170.766 228.265,170.633 228.398 M212.273 228.425 L 221.640 228.532 221.538 237.954 C 221.481 243.136,221.561 247.250,221.714 247.097 C 221.867 246.943,221.949 242.660,221.896 237.578 L 221.798 228.338 212.352 228.328 L 202.906 228.319 212.273 228.425 M240.236 228.428 C 242.784 228.490,246.953 228.490,249.500 228.428 C 252.048 228.365,249.964 228.314,244.868 228.314 C 239.773 228.314,237.688 228.365,240.236 228.428 M268.005 228.392 C 267.665 228.732,267.689 246.963,268.029 247.174 C 268.179 247.267,268.255 243.108,268.199 237.931 L 268.096 228.520 277.384 228.520 L 286.672 228.520 286.569 237.948 C 286.513 243.133,286.592 247.250,286.746 247.097 C 286.899 246.943,286.981 242.660,286.927 237.578 L 286.830 228.338 277.542 228.241 C 272.433 228.188,268.141 228.256,268.005 228.392 M140.850 231.297 C 140.712 231.435,140.599 234.463,140.599 238.026 L 140.599 244.505 147.510 244.505 L 154.421 244.505 154.322 237.875 L 154.223 231.244 147.662 231.146 C 144.053 231.091,140.987 231.159,140.850 231.297 M173.297 237.784 L 173.297 244.505 180.018 244.505 L 186.739 244.505 186.739 237.784 L 186.739 231.063 180.018 231.063 L 173.297 231.063 173.297 237.784 M205.631 237.776 L 205.631 244.505 212.542 244.505 L 219.453 244.505 219.354 237.875 L 219.255 231.244 212.443 231.145 L 205.631 231.047 205.631 237.776 M238.208 231.305 C 238.074 231.438,237.965 234.463,237.965 238.026 L 237.965 244.505 244.868 244.505 L 251.771 244.505 251.771 237.784 L 251.771 231.063 245.111 231.063 C 241.447 231.063,238.341 231.172,238.208 231.305 M270.663 237.784 L 270.663 244.505 277.384 244.505 L 284.105 244.505 284.105 237.784 L 284.105 231.063 277.384 231.063 L 270.663 231.063 270.663 237.784 M170.548 270.300 C 170.548 275.395,170.600 277.480,170.662 274.932 C 170.724 272.384,170.724 268.215,170.662 265.668 C 170.600 263.120,170.548 265.204,170.548 270.300 M221.775 270.481 C 221.775 275.677,221.826 277.751,221.888 275.092 C 221.951 272.433,221.950 268.182,221.888 265.646 C 221.826 263.110,221.775 265.286,221.775 270.481 M88.990 264.396 L 87.738 265.758 89.101 264.506 C 90.369 263.341,90.630 263.034,90.353 263.034 C 90.292 263.034,89.679 263.647,88.990 264.396 M140.744 263.907 C 140.193 265.343,140.752 266.082,142.961 266.844 C 147.072 268.260,153.678 273.310,153.678 275.036 C 153.678 275.229,153.846 275.386,154.051 275.386 C 154.294 275.386,154.388 273.336,154.323 269.482 L 154.223 263.579 147.585 263.480 C 142.056 263.397,140.912 263.469,140.744 263.907 M173.297 270.300 L 173.297 277.203 180.018 277.203 L 186.739 277.203 186.739 270.300 L 186.739 263.397 180.018 263.397 L 173.297 263.397 173.297 270.300 M205.714 270.201 L 205.813 277.021 212.534 277.021 L 219.255 277.021 219.255 270.300 L 219.255 263.579 212.435 263.480 L 205.615 263.381 205.714 270.201 M83.677 276.839 C 83.677 278.138,83.743 278.669,83.823 278.020 C 83.904 277.371,83.904 276.308,83.823 275.658 C 83.743 275.009,83.677 275.540,83.677 276.839 M35.696 305.359 C 35.700 306.158,35.774 306.442,35.861 305.990 C 35.948 305.538,35.945 304.884,35.854 304.537 C 35.763 304.190,35.692 304.559,35.696 305.359 " stroke="none" fill="#f5ecab" fill-rule="evenodd"></path></g></svg>